<?xml version="1.0" encoding="utf-8"?>
<!-- Generator: Adobe Illustrator 15.0.0, SVG Export Plug-In . SVG Version: 6.00 Build 0)  -->
<!DOCTYPE svg PUBLIC "-//W3C//DTD SVG 1.1//EN" "http://www.w3.org/Graphics/SVG/1.1/DTD/svg11.dtd">
<svg version="1.1" id="Layer_1" xmlns="http://www.w3.org/2000/svg" xmlns:xlink="http://www.w3.org/1999/xlink" x="0px" y="0px"
	 width="289.678px" height="254.839px" viewBox="0 0 289.678 254.839" enable-background="new 0 0 289.678 254.839"
	 xml:space="preserve">
<g>
	<path fill="#FFFFFF" d="M269.415,150.242c0-11.209-5.549-21.101-14.025-27.146c6.98-6.112,11.412-15.066,11.412-25.073
		c0-14.996-9.902-27.673-23.52-31.87c0.537-2.37,0.842-4.829,0.842-7.363c0-18.418-14.926-33.347-33.346-33.347
		c-4.719,0-9.207,0.994-13.275,2.762c-5.053-11.993-16.914-20.415-30.744-20.415c-10.615,0-20.047,4.974-26.157,12.698
		c-6.107-7.724-15.541-12.698-26.154-12.698c-17.065,0-31.113,12.825-33.087,29.36c-1.995-0.372-4.043-0.591-6.146-0.591
		c-18.415,0-33.346,14.929-33.346,33.348c0,2.207,0.226,4.358,0.635,6.445C27.227,79.4,15.713,92.875,15.713,109.049
		c0,9.219,3.745,17.567,9.792,23.601c-5.26,5.898-8.485,13.646-8.485,22.17c0,16.069,11.372,29.479,26.506,32.637
		c-0.632,2.566-1.003,5.232-1.003,7.994c0,18.418,14.93,33.348,33.347,33.348c3.961,0,7.745-0.727,11.271-1.995
		c4.179,13.647,16.87,23.573,31.883,23.573c11.962,0,22.424-6.32,28.309-15.782c6.014,8.737,16.072,14.474,27.482,14.474
		c15.068,0,27.787-9.996,31.922-23.714c2.355,0.527,4.795,0.828,7.311,0.828c18.42,0,33.348-14.928,33.348-33.349
		c0-3.729-0.637-7.303-1.771-10.652C259.384,178.072,269.415,165.334,269.415,150.242"/>
	<path fill="#5A3E35" d="M264.079,148.398c0-10.735-5.314-20.211-13.436-26.004c6.688-5.855,10.93-14.431,10.93-24.017
		c0-14.365-9.484-26.51-22.525-30.528c0.512-2.272,0.805-4.627,0.805-7.054c0-17.642-14.299-31.944-31.945-31.944
		c-4.52,0-8.816,0.952-12.717,2.647c-4.836-11.491-16.201-19.558-29.451-19.558c-10.166,0-19.203,4.764-25.055,12.166
		c-5.848-7.402-14.886-12.166-25.051-12.166c-16.348,0-29.805,12.286-31.695,28.126c-1.912-0.358-3.875-0.565-5.887-0.565
		c-17.643,0-31.945,14.3-31.945,31.944c0,2.113,0.217,4.175,0.609,6.174c-14.634,2.918-25.664,15.826-25.664,31.319
		c0,8.833,3.588,16.828,9.382,22.609c-5.042,5.648-8.13,13.07-8.13,21.236c0,15.395,10.893,28.24,25.391,31.265
		c-0.605,2.456-0.962,5.013-0.962,7.658c0,17.642,14.303,31.944,31.944,31.944c3.796,0,7.419-0.697,10.798-1.912
		c4.003,13.074,16.161,22.58,30.542,22.58c11.459,0,21.48-6.053,27.118-15.117c5.76,8.369,15.395,13.865,26.326,13.865
		c14.432,0,26.615-9.574,30.578-22.715c2.256,0.504,4.594,0.791,7.004,0.791c17.643,0,31.943-14.3,31.943-31.943
		c0-3.573-0.611-6.998-1.697-10.204C254.47,175.057,264.079,162.855,264.079,148.398"/>
	<path fill="none" stroke="#3B2417" stroke-width="0.25" stroke-miterlimit="10" d="M264.079,148.398
		c0-10.735-5.314-20.211-13.436-26.004c6.688-5.855,10.93-14.431,10.93-24.017c0-14.365-9.484-26.51-22.525-30.528
		c0.512-2.272,0.805-4.627,0.805-7.054c0-17.642-14.299-31.944-31.945-31.944c-4.52,0-8.816,0.952-12.717,2.647
		c-4.836-11.491-16.201-19.558-29.451-19.558c-10.166,0-19.203,4.764-25.055,12.166c-5.848-7.402-14.886-12.166-25.051-12.166
		c-16.348,0-29.805,12.286-31.695,28.126c-1.912-0.358-3.875-0.565-5.887-0.565c-17.643,0-31.945,14.3-31.945,31.944
		c0,2.113,0.217,4.175,0.609,6.174c-14.634,2.918-25.664,15.826-25.664,31.319c0,8.833,3.588,16.828,9.382,22.609
		c-5.042,5.648-8.13,13.07-8.13,21.236c0,15.395,10.893,28.24,25.391,31.265c-0.605,2.456-0.962,5.013-0.962,7.658
		c0,17.642,14.303,31.944,31.944,31.944c3.796,0,7.419-0.697,10.798-1.912c4.003,13.074,16.161,22.58,30.542,22.58
		c11.459,0,21.48-6.053,27.118-15.117c5.76,8.369,15.395,13.865,26.326,13.865c14.432,0,26.615-9.574,30.578-22.715
		c2.256,0.504,4.594,0.791,7.004,0.791c17.643,0,31.943-14.3,31.943-31.943c0-3.573-0.611-6.998-1.697-10.204
		C254.47,175.057,264.079,162.855,264.079,148.398z"/>
	<path fill="#FFFFFF" d="M128.118,90.463c0,0-11.591-18.973-32.879-10.489C95.239,79.975,103.213,100.06,128.118,90.463"/>
	<line fill="#5A3E35" x1="95.239" y1="79.974" x2="128.118" y2="90.463"/>
	<line fill="none" stroke="#5A3E35" stroke-width="2" stroke-miterlimit="10" x1="95.239" y1="79.974" x2="128.118" y2="90.463"/>
	<path fill="#FFFFFF" d="M161.265,90.463c0,0,11.594-18.973,32.881-10.489C194.146,79.975,186.169,100.06,161.265,90.463"/>
	<line fill="#5A3E35" x1="194.144" y1="79.974" x2="161.265" y2="90.463"/>
	<line fill="none" stroke="#5A3E35" stroke-width="2" stroke-miterlimit="10" x1="194.144" y1="79.974" x2="161.265" y2="90.463"/>
	
		<line fill="none" stroke="#FFFFFF" stroke-width="0.5" stroke-miterlimit="10" x1="221.534" y1="101.317" x2="73.183" y2="101.317"/>
	<path fill="#4CBAAB" d="M240.132,183.92c0,0,2.543,0.402,3.947-0.988c1.211-1.195,4.086-2.514,4.648-2.656
		c0.566-0.141,8.139,0.594,10.729,1.341c7.154,2.07,12.398,2.501,16.527,2.015c10.508-1.248,9.85-7.541,9.85-7.541
		c-0.74-7.217-10.057-7.92-10.057-7.92c-6.219-1.006-12.66,1.742-16.785,2.76c-2.582,0.636-9.391,1.35-10.578,1.021
		c-1.166-0.324-4.105-2.482-4.105-2.482c-2.121-1.791-4.002-1.047-4.002-1.047s0.723-6.44-3.818-12.106l-79.451,0.339l-24.854,0.107
		l-79.455,0.342c-4.493,5.715-3.705,12.145-3.705,12.145s-1.885-0.734-3.997,1.078c0,0-2.924,2.19-4.085,2.518
		c-1.183,0.342-8.003-0.315-10.591-0.926c-4.133-0.986-10.599-3.676-16.803-2.615c0,0-9.312,0.789-9.985,8.008
		c0,0-0.609,6.294,9.904,7.449c4.142,0.457,9.38-0.019,16.512-2.148c2.585-0.771,10.156-1.57,10.718-1.439
		c0.565,0.143,3.453,1.435,4.671,2.625c1.42,1.375,3.957,0.953,3.957,0.953c0.622,7.902,3.705,9.973,3.705,9.973l79.318-0.338
		l24.856-0.111l79.301-0.342C236.503,193.932,239.579,191.84,240.132,183.92"/>
</g>
<g>
	<path fill="#F4F5F4" d="M63.626,108.16c1.242,0.893,2.212,2.135,2.911,3.726c0.66,1.669,0.99,3.513,0.99,5.531
		c0,1.863-0.272,3.921-0.815,6.171c-0.116,0.427-0.253,0.873-0.408,1.339c-0.233,0.854-0.407,1.476-0.524,1.863
		c-0.388,1.203-0.854,2.523-1.397,3.959c-1.592,4.347-2.387,7.491-2.387,9.432c0,1.319,0.408,2.426,1.223,3.318
		c0.776,0.893,1.747,1.338,2.911,1.338c1.397,0,2.853-0.64,4.366-1.92c1.591-1.32,2.969-3.028,4.134-5.124
		c1.319-2.25,2.329-4.6,3.027-7.044c0.737-2.483,1.106-5.026,1.106-7.627c0-3.066-0.932-6.365-2.795-9.897
		c-0.582-1.048-0.873-1.785-0.873-2.212c0-0.504,0.407-1.067,1.223-1.688l0.058-0.058c0.466-0.349,0.834-0.601,1.106-0.757
		c0.621-0.388,1.106-0.679,1.456-0.874c1.009-0.465,1.668-0.698,1.979-0.698c0.427,0,0.854,0.446,1.281,1.339
		c0.078,0.233,0.194,0.524,0.35,0.874c0.077,0.194,0.155,0.388,0.233,0.582c0.077,0.195,0.135,0.428,0.175,0.699
		c0.193,0.582,0.349,1.126,0.465,1.63c0.194,1.087,0.292,2.232,0.292,3.435c0,3.144-0.486,6.541-1.456,10.188
		c-0.932,3.572-2.349,7.181-4.25,10.829c-1.902,3.532-4.076,6.346-6.521,8.442c-2.523,2.174-5.123,3.26-7.801,3.26
		c-1.669,0-3.241-0.465-4.716-1.396c-1.32-0.893-2.368-2.115-3.144-3.668c-0.777-1.631-1.165-3.396-1.165-5.298
		c0-2.755,1.028-6.928,3.086-12.517c1.901-5.084,2.853-8.811,2.853-11.178c0-1.397-0.272-2.542-0.815-3.435
		c-0.582-0.815-1.378-1.223-2.387-1.223c-0.97,0-1.96,0.408-2.969,1.223c-1.048,0.854-1.883,1.902-2.504,3.144
		c-0.66,1.359-0.99,2.64-0.99,3.842c0,0.932,0.136,1.669,0.408,2.212c0.233,0.582,0.66,1.185,1.281,1.805
		c0.543,0.466,0.815,0.913,0.815,1.339c0,0.698-0.408,1.495-1.223,2.387c-0.894,0.894-1.63,1.339-2.212,1.339
		c-0.854,0-1.611-0.563-2.271-1.688c-0.661-1.125-0.99-2.329-0.99-3.61c0-1.591,0.329-3.26,0.99-5.007
		c0.659-1.785,1.533-3.377,2.62-4.774c1.165-1.514,2.503-2.697,4.017-3.551c1.475-0.854,3.066-1.281,4.774-1.281
		C60.928,106.879,62.422,107.307,63.626,108.16z"/>
	<path fill="#F4F5F4" d="M105.252,141.171c-1.204,1.164-2.077,1.96-2.62,2.387c-1.01,0.894-1.747,1.495-2.212,1.806
		c-1.359,1.01-2.678,1.707-3.959,2.096c-0.854,0.232-1.495,0.387-1.921,0.465c-0.621,0.117-1.32,0.176-2.096,0.176
		c-2.601,0-4.678-0.835-6.229-2.504c-1.592-1.668-2.387-3.822-2.387-6.463c0-1.94,0.388-3.9,1.165-5.88
		c0.776-1.94,1.785-3.648,3.027-5.124c1.281-1.436,2.716-2.6,4.308-3.493c1.552-0.854,3.202-1.281,4.949-1.281
		c1.668,0,3.066,0.447,4.192,1.339c1.086,0.854,1.63,2.058,1.63,3.61c0,1.708-0.68,3.183-2.038,4.425
		c-1.436,1.243-2.931,2.212-4.483,2.911c-1.397,0.661-3.396,1.397-5.997,2.212c0.427,1.786,1.125,3.164,2.096,4.134
		c1.048,0.932,2.329,1.396,3.842,1.396c0.893,0,1.824-0.213,2.794-0.641c0.893-0.426,1.708-0.95,2.445-1.571l3.493-3.261V141.171z
		 M95.821,133.02c1.203-1.203,1.805-2.755,1.805-4.658c0-0.893-0.175-1.572-0.524-2.038c-0.349-0.466-0.835-0.699-1.455-0.699
		c-0.661,0-1.437,0.408-2.329,1.223c-0.932,0.932-1.65,2.135-2.154,3.609c-0.544,1.63-0.815,3.455-0.815,5.473
		C92.754,135.232,94.578,134.263,95.821,133.02z"/>
	<path fill="#F4F5F4" d="M103.68,138.609c1.63-1.669,2.969-3.319,4.017-4.949c-1.63-0.776-2.445-1.843-2.445-3.202l0.292-1.863
		c0.232-0.97,0.543-1.805,0.931-2.503c0.427-0.699,1.009-1.339,1.747-1.921c0.776-0.582,1.649-0.873,2.62-0.873
		c1.475,0,2.212,0.757,2.212,2.271c0,1.243-0.428,2.95-1.281,5.123c1.708-0.233,3.202-0.931,4.483-2.096
		c1.203-1.086,2.464-2.794,3.784-5.124l2.562-0.116l-2.62,7.277l-1.572,4.541l-0.873,2.911l-0.175,1.747
		c0,0.854,0.194,1.475,0.583,1.863c0.349,0.504,0.834,0.756,1.455,0.756c0.35,0,0.757-0.096,1.223-0.291
		c0.466-0.193,1.067-0.641,1.805-1.339l3.144-2.911v3.261c-1.708,1.669-3.202,3.009-4.483,4.017
		c-1.243,0.971-2.426,1.729-3.551,2.271c-1.087,0.465-2.077,0.698-2.969,0.698c-1.204,0-2.193-0.505-2.969-1.514
		c-0.777-1.009-1.165-2.192-1.165-3.552c0-1.318,0.35-2.871,1.048-4.657c0.66-1.668,1.747-3.706,3.261-6.113
		c-1.32,0.699-2.853,1.204-4.6,1.514c-1.204,2.212-3.144,4.657-5.822,7.336h-0.641V138.609z"/>
	<path fill="#F4F5F4" d="M150.14,141.171c-1.709,1.553-3.359,2.329-4.949,2.329c-0.232,0-0.545-0.039-0.932-0.117H144.2
		c-0.388-0.077-0.718-0.174-0.99-0.291c-0.66-0.193-1.359-0.582-2.096-1.164c-1.32,2.019-2.775,3.551-4.367,4.6
		c-1.553,1.047-3.222,1.572-5.007,1.572c-1.437,0-2.717-0.389-3.842-1.165c-1.126-0.776-2-1.805-2.62-3.086
		c-0.621-1.319-0.932-2.911-0.932-4.774c0-2.871,0.718-5.51,2.154-7.917c1.475-2.445,3.377-4.366,5.706-5.764
		c2.406-1.397,4.987-2.096,7.743-2.096c1.591,0,2.755,0.174,3.493,0.524c0.776,0.349,1.241,0.718,1.397,1.106
		c0.078,0.195,0.117,0.37,0.117,0.524c0.037,0.156,0.076,0.272,0.115,0.35c0.039,0.116,0.059,0.466,0.059,1.048
		c0,3.416-0.971,7.763-2.911,13.041c1.009,0.894,2.019,1.339,3.028,1.339c1.279,0,2.91-1.105,4.891-3.318V141.171z M136.807,133.136
		c0-1.591,0.329-3.007,0.99-4.25c0.62-1.165,1.61-2.367,2.969-3.609c-0.389-0.078-0.796-0.117-1.223-0.117
		c-1.902,0-3.397,0.661-4.483,1.979c-1.204,1.359-2.058,3.047-2.562,5.065c-0.544,2.096-0.815,4.038-0.815,5.822
		c0,1.979,0.329,3.474,0.99,4.483c0.66,1.048,1.475,1.572,2.445,1.572c1.358,0,2.813-1.242,4.366-3.727
		C137.699,138.222,136.807,135.814,136.807,133.136z M137.563,119.688c1.514-1.901,2.736-3.551,3.667-4.949
		c0.893-1.436,1.61-2.891,2.154-4.367l6.52-0.698c-0.232,0.971-0.602,1.902-1.105,2.794c-0.156,0.272-0.428,0.66-0.814,1.165
		c-0.313,0.465-0.699,0.931-1.164,1.397c-0.816,0.815-1.846,1.669-3.086,2.562l-4.425,2.678L137.563,119.688z"/>
	<path fill="#F4F5F4" d="M149.206,148.157l-0.291-5.706v-1.863c0-0.504,0.059-1.164,0.176-1.979l0.057-0.291
		c0.156-1.009,0.271-1.708,0.35-2.096c0.078-0.271,0.154-0.621,0.232-1.048c0.117-0.582,0.195-0.97,0.234-1.164
		c0.426-1.708,0.854-3.124,1.279-4.25l2.154-5.182l6.93-1.339c-1.359,3.649-2.311,6.734-2.854,9.257
		c0.854-0.97,2.115-2.29,3.785-3.959c0.93-0.932,1.979-1.901,3.143-2.911c1.785-1.552,3.57-2.329,5.357-2.329
		c0.619,0,1.201,0.155,1.746,0.465c0.543,0.35,0.951,0.815,1.223,1.397c0.271,0.544,0.408,1.204,0.408,1.979
		c0,0.389-0.098,1.126-0.293,2.212c-0.154,0.893-0.445,1.979-0.873,3.26l-1.279,3.493c-1.127,2.95-1.689,4.813-1.689,5.59
		c0,0.504,0.117,0.912,0.35,1.223c0.311,0.311,0.66,0.465,1.049,0.465c0.891,0,1.998-0.659,3.318-1.979
		c1.24-1.165,2.367-2.33,3.377-3.494v3.261c-2.252,2.368-4.291,4.114-6.113,5.239c-1.826,1.125-3.533,1.689-5.125,1.689
		c-1.279,0-2.309-0.447-3.084-1.34c-0.777-0.893-1.166-2.076-1.166-3.551c0-2.135,0.834-5.24,2.504-9.316
		c0.893-2.329,1.34-3.745,1.34-4.25c0-0.62-0.232-0.932-0.699-0.932c-0.66,0-1.67,0.699-3.027,2.096
		c-0.854,0.932-1.631,1.767-2.328,2.503c-0.582,0.661-1.398,1.592-2.445,2.794l-0.525,0.641c-0.115,0.66-0.291,1.611-0.523,2.853
		c-0.156,0.815-0.232,1.593-0.232,2.329l-0.176,4.773L149.206,148.157z"/>
	<path fill="#F4F5F4" d="M190.136,141.171c-4.465,4.657-7.783,6.986-9.957,6.986c-1.242,0-2.27-0.641-3.084-1.921
		c-0.816-1.242-1.223-2.775-1.223-4.6c0-2.639,0.406-5.317,1.223-8.035c0.504-1.901,1.047-3.668,1.629-5.298
		c0.389-1.203,0.795-2.348,1.223-3.435l7.219-1.514h0.35l-2.852,8.908l-1.34,4.774c-0.271,1.048-0.408,2.076-0.408,3.086
		c0,0.621,0.137,1.126,0.408,1.514c0.271,0.389,0.621,0.582,1.049,0.582c0.814,0,1.59-0.311,2.328-0.932
		c0.271-0.193,0.758-0.641,1.455-1.339c0.816-0.815,1.475-1.493,1.98-2.038V141.171z M185.013,113.05
		c0.504,0.195,1.008,0.291,1.514,0.291c1.047,0,2.057-0.368,3.027-1.106c0,2.291-0.428,3.979-1.281,5.065
		c-0.854,1.165-2.096,1.747-3.727,1.747c-1.709,0-3.105-0.485-4.191-1.455c1.047-1.708,1.9-3.59,2.561-5.647L185.013,113.05z"/>
	<path fill="#F4F5F4" d="M210.452,141.171c-2.367,2.368-4.619,4.134-6.752,5.298c-2.02,1.086-4.096,1.631-6.23,1.631
		c-2.484,0-4.521-0.796-6.113-2.388c-1.592-1.591-2.387-3.629-2.387-6.113c0-1.863,0.387-3.803,1.164-5.822
		c0.775-1.979,1.824-3.745,3.145-5.298c1.281-1.514,2.813-2.774,4.6-3.784c1.746-0.932,3.434-1.397,5.064-1.397
		s3.008,0.446,4.133,1.339c1.049,0.932,1.572,2.174,1.572,3.726c0,0.466-0.098,0.854-0.291,1.165
		c-0.271,0.349-0.641,0.621-1.105,0.815l-3.318,1.572l-0.873,0.291c-0.273,0-0.408-0.193-0.408-0.582l0.174-1.514l0.176-1.514
		c0-0.854-0.176-1.533-0.523-2.038c-0.35-0.504-0.816-0.757-1.398-0.757c-0.893,0-1.785,0.466-2.678,1.397
		c-0.814,0.971-1.494,2.232-2.037,3.785c-0.545,1.63-0.816,3.26-0.816,4.89c0,2.212,0.563,3.999,1.689,5.356
		c1.125,1.359,2.541,2.038,4.25,2.038c0.893,0,1.805-0.155,2.736-0.466c0.854-0.271,1.842-0.893,2.969-1.863
		c0.736-0.582,1.824-1.591,3.26-3.027V141.171z"/>
	<path fill="#F4F5F4" d="M239.853,141.171c-0.348,0.312-0.697,0.621-1.047,0.931c-1.164,1.088-2.02,1.863-2.563,2.33
		c-0.504,0.465-1.203,1.047-2.096,1.746l-0.582,0.466c-1.32,0.97-2.641,1.456-3.959,1.456c-2.834,0-4.25-2.64-4.25-7.918
		c-1.902,2.717-3.668,4.715-5.297,5.996c-1.631,1.281-3.262,1.922-4.891,1.922c-1.127,0-2.117-0.37-2.971-1.107
		c-0.971-0.736-1.707-1.727-2.211-2.969c-0.545-1.281-0.816-2.619-0.816-4.018c0-2.25,0.504-4.443,1.514-6.579
		c1.01-2.057,2.291-3.842,3.844-5.356c1.59-1.514,3.201-2.697,4.832-3.551c1.668-0.854,3.221-1.281,4.658-1.281
		c2.365,0,4.016,1.087,4.947,3.26l5.822-3.202h1.572l-2.504,8.325l-1.281,4.833c-0.428,1.902-0.641,3.164-0.641,3.784
		c0,0.776,0.176,1.378,0.525,1.805c0.311,0.428,0.717,0.641,1.223,0.641c0.697,0,1.357-0.291,1.979-0.874
		c0.311-0.271,0.777-0.658,1.398-1.164c0.037-0.077,0.135-0.174,0.291-0.291c0.465-0.426,1.299-1.242,2.502-2.445V141.171z
		 M220.524,127.896c-1.242,1.592-2.232,3.474-2.969,5.647c-0.777,2.251-1.164,4.173-1.164,5.764c0,0.971,0.27,1.786,0.814,2.445
		c0.543,0.661,1.164,0.989,1.863,0.989c1.281,0,2.541-0.795,3.783-2.387c1.242-1.591,2.232-3.454,2.971-5.589
		c0.736-2.096,1.105-4.037,1.105-5.822c0-0.97-0.215-1.785-0.641-2.445c-0.465-0.62-1.127-0.931-1.979-0.931
		C222.989,125.568,221.728,126.345,220.524,127.896z"/>
</g>
<g>
	<path fill="#F5F5F5" d="M82.075,178.943c0,0.492,0.038,1.229,0.17,1.814h-2.116c-0.075-0.416-0.075-0.794-0.075-1.134
		c0-1.965,1.095-3.872,1.095-5.497c0-0.604-0.227-1.076-0.907-1.076c-1.114,0-2.399,2.266-2.777,4.269l-0.661,3.438h-2.116
		l0.945-4.761c0.151-0.737,0.227-1.493,0.227-1.87c0-0.604-0.227-1.076-0.907-1.076c-1.115,0-2.418,2.266-2.796,4.287l-0.661,3.42
		h-2.116l0.963-4.761c0.151-0.737,0.208-1.36,0.208-1.87c0-1.379-0.359-1.945-0.473-2.135l1.719-0.68
		c0.283,0.34,0.491,0.83,0.491,1.605c0,0.529-0.113,1.171-0.17,1.738l0.283-0.719c0.68-1.719,1.851-2.588,3.211-2.588
		c1.474,0,2.248,0.851,2.305,2.154c0.718-1.455,1.719-2.154,3.003-2.154c1.587,0,2.38,0.907,2.38,2.305
		C83.303,175.639,82.075,177.451,82.075,178.943z"/>
	<path fill="#F5F5F5" d="M84.63,177.791c0-3.57,1.908-6.441,5.308-6.441c0.435,0,1.247,0.02,2.248,0.453l1.19,0.076l-0.85,4.401
		c-0.132,0.698-0.189,1.284-0.189,1.757c0,1.229,0.416,1.832,0.68,2.229l-1.7,0.681c-0.378-0.435-0.642-1.077-0.642-1.87
		c0-0.321,0.057-0.85,0.132-1.512l-0.321,0.756c-0.869,1.984-2.021,2.588-3.344,2.588C85.348,180.908,84.63,179.359,84.63,177.791z
		 M90.788,174.297l0.264-1.304c-0.302-0.151-0.736-0.188-1.077-0.188c-2.267,0-3.098,2.891-3.098,5.063
		c0,1.096,0.321,1.492,0.964,1.492C89.125,179.359,90.391,176.186,90.788,174.297z"/>
	<path fill="#F5F5F5" d="M101.388,173.068l-1.568,0.624c-0.189-0.472-0.264-0.982-1.077-0.982c-0.85,0-1.19,0.585-1.19,1.096
		c0,0.698,0.604,1.134,1.02,1.36l0.548,0.303c0.831,0.453,1.568,0.981,1.568,2.531c0,1.624-1.247,2.965-3.646,2.965
		c-1.605,0-3.098-0.906-3.098-0.906l0.831-1.492c0,0,1.379,0.869,2.323,0.869c0.945,0,1.417-0.492,1.417-1.077
		c0-0.851-0.548-1.228-1.152-1.55l-0.472-0.245c-0.604-0.321-1.53-0.812-1.53-2.437c0-1.605,1.209-2.853,3.533-2.853
		C100.463,171.274,101.2,172.105,101.388,173.068z"/>
	<path fill="#F5F5F5" d="M102.07,177.791c0-3.57,1.908-6.441,5.308-6.441c0.435,0,1.247,0.02,2.248,0.453l1.19,0.076l-0.85,4.401
		c-0.132,0.698-0.189,1.284-0.189,1.757c0,1.229,0.416,1.832,0.68,2.229l-1.7,0.681c-0.378-0.435-0.642-1.077-0.642-1.87
		c0-0.321,0.057-0.85,0.132-1.512l-0.321,0.756c-0.869,1.984-2.021,2.588-3.344,2.588
		C102.788,180.908,102.07,179.359,102.07,177.791z M108.229,174.297l0.264-1.304c-0.302-0.151-0.736-0.188-1.077-0.188
		c-2.267,0-3.098,2.891-3.098,5.063c0,1.096,0.321,1.492,0.964,1.492C106.566,179.359,107.832,176.186,108.229,174.297z"/>
	<path fill="#F5F5F5" d="M118.829,173.068l-1.568,0.624c-0.189-0.472-0.264-0.982-1.077-0.982c-0.85,0-1.19,0.585-1.19,1.096
		c0,0.698,0.604,1.134,1.02,1.36l0.548,0.303c0.831,0.453,1.568,0.981,1.568,2.531c0,1.624-1.247,2.965-3.646,2.965
		c-1.605,0-3.098-0.906-3.098-0.906l0.831-1.492c0,0,1.379,0.869,2.323,0.869c0.945,0,1.417-0.492,1.417-1.077
		c0-0.851-0.548-1.228-1.152-1.55l-0.472-0.245c-0.604-0.321-1.53-0.812-1.53-2.437c0-1.605,1.209-2.853,3.533-2.853
		C117.903,171.274,118.64,172.105,118.829,173.068z"/>
	<path fill="#F5F5F5" d="M130.846,172.029c-0.189-0.396-0.585-0.755-1.133-0.755c-0.926,0-1.379,0.604-1.379,1.379
		c0,1.096,0.888,2.493,2.191,4.024c0.454-0.567,0.888-1.191,1.247-1.72l1.379,0.926c-0.396,0.755-0.85,1.511-1.379,2.21
		c0.453,0.491,0.907,0.982,1.417,1.492l-1.228,1.266c-0.472-0.49-0.963-0.963-1.455-1.455c-1.039,0.889-2.324,1.475-3.929,1.475
		c-1.738,0-3.004-1.077-3.004-2.777c0-2.153,1.077-3.344,2.758-4.25c-0.113-0.34-0.151-0.68-0.151-1.021
		c0-1.7,1.19-3.306,3.684-3.306c1.247,0,1.852,0.699,2.305,1.549L130.846,172.029z M126.974,175.279
		c-0.737,0.68-1.133,1.303-1.133,2.323c0,0.794,0.491,1.417,1.455,1.417c0.642,0,1.303-0.378,1.927-0.945
		C128.334,177.149,127.521,176.205,126.974,175.279z"/>
	<path fill="#F5F5F5" d="M144.81,173.862c-0.321-0.34-0.643-0.604-1.209-0.604c-0.699,0-1.398,1.436-1.813,2.871l-0.907,4.629
		h-2.116l0.963-4.761c0.151-0.737,0.208-1.36,0.208-1.87c0-1.379-0.359-1.945-0.473-2.135l1.719-0.68
		c0.283,0.34,0.491,0.83,0.491,1.605c0,0.529-0.113,1.209-0.17,1.795c0.529-2.268,1.341-3.382,2.739-3.382
		c0.85,0,1.359,0.321,1.662,0.774L144.81,173.862z"/>
	<path fill="#F5F5F5" d="M150.536,171.274c1.945,0,2.719,0.794,2.719,2.04c0,2.191-2.398,3.722-5.762,3.892
		c-0.018,0.227-0.018,0.453-0.018,0.661c0,1.171,0.547,1.568,1.379,1.568c0.982,0,2.871-0.775,2.871-0.775l0.434,1.36
		c0,0-1.906,0.944-3.74,0.944c-2.379,0-3.154-1.549-3.154-3.154C145.265,174.24,147.153,171.274,150.536,171.274z M147.72,175.846
		c2.248-0.133,3.4-1.303,3.4-2.191c0-0.586-0.301-0.926-1.02-0.926C148.929,172.729,148.118,174.221,147.72,175.846z"/>
	<path fill="#F5F5F5" d="M154.995,175.997c0.152-0.737,0.209-1.36,0.209-1.87c0-1.379-0.359-1.945-0.473-2.135l1.719-0.68
		c0.283,0.34,0.49,0.83,0.49,1.605c0,0.396-0.094,1.209-0.15,1.586l0.246-0.547c0.869-2.002,2.021-2.607,3.344-2.607
		c1.795,0,2.512,1.549,2.512,3.117c0,3.57-1.908,6.441-5.309,6.441c-0.51,0-1-0.075-1.436-0.17l-0.756,3.835l-2.135,0.378
		L154.995,175.997z M157.546,179.454c2.248,0,3.098-2.891,3.098-5.063c0-1.096-0.32-1.492-0.963-1.492
		c-1.285,0-2.361,2.456-3.154,5.951l-0.096,0.416C156.81,179.396,157.224,179.454,157.546,179.454z"/>
	<path fill="#F5F5F5" d="M172.454,174.43c0,3.607-1.871,6.535-5.271,6.535c-2.381,0-3.154-1.549-3.154-3.154
		c0-3.57,1.889-6.536,5.27-6.536C171.698,171.274,172.454,172.823,172.454,174.43z M166.276,177.943c0,1.17,0.51,1.567,1.342,1.567
		c1.662,0,2.588-3.136,2.588-5.214c0-1.172-0.512-1.568-1.342-1.568C167.202,172.729,166.276,175.846,166.276,177.943z"/>
	<path fill="#F5F5F5" d="M180.37,173.068l-1.568,0.624c-0.188-0.472-0.264-0.982-1.076-0.982c-0.85,0-1.189,0.585-1.189,1.096
		c0,0.698,0.604,1.134,1.02,1.36l0.547,0.303c0.832,0.453,1.568,0.981,1.568,2.531c0,1.624-1.246,2.965-3.645,2.965
		c-1.607,0-3.1-0.906-3.1-0.906l0.832-1.492c0,0,1.379,0.869,2.324,0.869c0.943,0,1.416-0.492,1.416-1.077
		c0-0.851-0.549-1.228-1.152-1.55l-0.473-0.245c-0.604-0.321-1.529-0.812-1.529-2.437c0-1.605,1.209-2.853,3.531-2.853
		C179.444,171.274,180.181,172.105,180.37,173.068z"/>
	<path fill="#F5F5F5" d="M181.448,171.501h1.891l0.83-2.361l1.795-0.396l-0.549,2.758h2.117l-0.266,1.53h-2.152l-1.059,5.572
		c-0.02,0.113-0.037,0.208-0.037,0.283c0,0.34,0.17,0.473,0.717,0.473c0.699,0,1.605-0.321,1.605-0.321v1.417
		c0,0-1.057,0.453-2.398,0.453c-1.512,0-2.098-0.566-2.098-1.586c0-0.17,0.02-0.341,0.057-0.529l1.152-5.762h-1.605V171.501z"/>
	<path fill="#F5F5F5" d="M192.653,171.274c1.945,0,2.721,0.794,2.721,2.04c0,2.191-2.4,3.722-5.762,3.892
		c-0.02,0.227-0.02,0.453-0.02,0.661c0,1.171,0.547,1.568,1.379,1.568c0.982,0,2.871-0.775,2.871-0.775l0.436,1.36
		c0,0-1.908,0.944-3.74,0.944c-2.381,0-3.156-1.549-3.156-3.154C187.382,174.24,189.272,171.274,192.653,171.274z M189.839,175.846
		c2.248-0.133,3.4-1.303,3.4-2.191c0-0.586-0.303-0.926-1.021-0.926C191.048,172.729,190.235,174.221,189.839,175.846z"/>
	<path fill="#F5F5F5" d="M202.177,173.862c-0.322-0.34-0.643-0.604-1.209-0.604c-0.699,0-1.398,1.436-1.814,2.871l-0.906,4.629
		h-2.115l0.963-4.761c0.15-0.737,0.207-1.36,0.207-1.87c0-1.379-0.357-1.945-0.471-2.135l1.719-0.68
		c0.283,0.34,0.49,0.83,0.49,1.605c0,0.529-0.113,1.209-0.17,1.795c0.529-2.268,1.342-3.382,2.74-3.382
		c0.85,0,1.359,0.321,1.662,0.774L202.177,173.862z"/>
	<path fill="#F5F5F5" d="M203.272,179.266c0-0.17,0.02-0.359,0.057-0.549l1.436-7.216h2.078l-1.359,7.027
		c-0.02,0.113-0.037,0.208-0.037,0.302c0,0.303,0.074,0.473,0.32,0.473c0.434,0,0.963-0.15,0.963-0.15v1.359
		c0,0-0.699,0.34-1.699,0.34C203.915,180.852,203.272,180.229,203.272,179.266z M204.917,169.952c0,0,1.113-2.475,2.719-3.74
		c0,0,0.908,0.34,1.305,1.171c-1.248,0.963-3.023,3.268-3.023,3.268L204.917,169.952z"/>
	<path fill="#F5F5F5" d="M208.356,177.791c0-3.57,1.908-6.441,5.309-6.441c0.434,0,1.246,0.02,2.248,0.453l1.189,0.076l-0.85,4.401
		c-0.133,0.698-0.189,1.284-0.189,1.757c0,1.229,0.416,1.832,0.68,2.229l-1.699,0.681c-0.379-0.435-0.643-1.077-0.643-1.87
		c0-0.321,0.057-0.85,0.133-1.512l-0.322,0.756c-0.869,1.984-2.021,2.588-3.344,2.588
		C209.073,180.908,208.356,179.359,208.356,177.791z M214.515,174.297l0.264-1.304c-0.301-0.151-0.736-0.188-1.076-0.188
		c-2.268,0-3.098,2.891-3.098,5.063c0,1.096,0.32,1.492,0.963,1.492C212.853,179.359,214.118,176.186,214.515,174.297z"/>
</g>
<g>
	<path fill="#FFFFFF" d="M91.115,77.79c0,1.566-1.269,2.836-2.834,2.836s-2.835-1.27-2.835-2.836c0-1.564,1.27-2.835,2.835-2.835
		S91.115,76.226,91.115,77.79"/>
	<circle fill="none" stroke="#5A3E35" stroke-width="2" stroke-miterlimit="10" cx="88.28" cy="77.79" r="2.834"/>
	<path fill="#FFFFFF" d="M203.032,77.79c0,1.566-1.27,2.836-2.836,2.836c-1.564,0-2.834-1.27-2.834-2.836
		c0-1.564,1.27-2.835,2.834-2.835C201.763,74.955,203.032,76.226,203.032,77.79"/>
	<circle fill="none" stroke="#5A3E35" stroke-width="2" stroke-miterlimit="10" cx="200.197" cy="77.79" r="2.835"/>
	<path fill="#FFFFFF" d="M162.276,61.015c0-3.066-3.188-6.988-7.051-4.16c3.863-2.828,0.775-6.708-1.604-6.942
		c-9.178-0.9-4.414-8.323-4.414-8.323s-6.081,0.433-11.152,8.756c0,0-7.87,0.665-4.669,6.509c-2.39-2.113-5.738,1.094-5.738,4.16
		c-2.393,0-4.33,2.488-4.33,5.554c0,3.065,1.937,5.55,4.33,5.55h17.313h17.314c2.395,0,4.332-2.485,4.332-5.55
		C166.608,63.503,164.671,61.015,162.276,61.015"/>
	<path fill="#FFFFFF" d="M126.272,73.893c1.623,2.536,1.625,12.317,6.485,16.973c4.39,4.205,20.359,4.616,24.314,0
		c4.467-5.215,5.094-14.669,6.582-16.973c0,0-14.385,0.307-19.209,0.294C139.876,74.174,126.272,73.893,126.272,73.893"/>
	<path fill="#5A3E35" d="M138.052,90.893c0.037,0.308-0.183,0.586-0.493,0.625c-0.309,0.035-0.587-0.186-0.626-0.494l-1.329-11.355
		c-0.035-0.306,0.184-0.586,0.494-0.625c0.309-0.035,0.587,0.187,0.625,0.497L138.052,90.893z"/>
	<path fill="#5A3E35" d="M151.958,90.893c-0.033,0.308,0.186,0.586,0.496,0.625c0.309,0.035,0.586-0.186,0.625-0.494l1.33-11.355
		c0.037-0.306-0.184-0.586-0.496-0.625c-0.307-0.035-0.586,0.187-0.623,0.497L151.958,90.893z"/>
	<path fill="#5A3E35" d="M145.569,91.036c0,0.312-0.252,0.563-0.564,0.563c-0.311,0-0.561-0.251-0.561-0.563V79.604
		c0-0.311,0.25-0.563,0.561-0.563c0.313,0,0.564,0.252,0.564,0.563V91.036z"/>
	<path fill="#5A3E35" d="M130.032,54.286c3.281,5.541,9.57,5.552,15.204,4.186c1.166-0.283,0.914-1.177-0.238-0.897
		c-4.926,1.193-10.211,0.959-13.034-3.807C131.597,53.151,129.754,53.818,130.032,54.286"/>
	<path fill="#5A3E35" d="M125.027,60.049c6.11,6.149,16.851,6.999,24.724,4.287c1.277-0.44,0.109-1.115-0.768-0.812
		c-7.045,2.426-16.758,1.204-22.164-4.237C126.334,58.799,124.504,59.522,125.027,60.049"/>
</g>
</svg>
